<?xml version="1.0" encoding="utf-8"?>
<!-- Generator: Adobe Illustrator 19.0.0, SVG Export Plug-In . SVG Version: 6.00 Build 0)  -->
<svg version="1.1" id="Ebene_1" xmlns="http://www.w3.org/2000/svg" xmlns:xlink="http://www.w3.org/1999/xlink" x="0px" y="0px"
	 width="34px" height="30px" viewBox="0 0 34 30" style="enable-background:new 0 0 34 30;" xml:space="preserve">
<style type="text/css">
	.st0{fill-rule:evenodd;clip-rule:evenodd;fill:#FFFFFF;}
</style>
<path id="XMLID_7_" class="st0" d="M25.16,1H8.84L0.68,15l8.16,14h16.32l8.16-14L25.16,1z M18.49,23.15v2.62h-2.47v-2.52
	c-1.5-0.18-3.28-0.83-4.48-1.92l1.63-2.49c1.3,0.96,2.42,1.46,3.64,1.46c1.43,0,2.06-0.58,2.06-1.74c0-2.59-6.72-2.54-6.72-7.08
	c0-2.47,1.48-4.18,3.87-4.66v-2.6h2.47v2.55c1.63,0.23,2.8,1.03,3.79,2.07l-1.88,2.12c-0.92-0.83-1.7-1.26-2.77-1.26
	c-1.22,0-1.88,0.48-1.88,1.61c0,2.39,6.72,2.19,6.72,7.01C22.46,20.73,21.11,22.6,18.49,23.15z"/>
</svg>
