<svg xmlns="http://www.w3.org/2000/svg" width="45.922386mm" height="46.027046mm" viewBox="0 0 45.922386 46.027046"><g fill-rule="evenodd"><path d="M19.326194 1.029874C18.994341.461027 18.191007 0 17.533238 0H7.199695c-.658756 0-1.460603.461027-1.792971 1.029874L.2489 9.879957c-.331867.568829-.331867 1.491401 0 2.060247l5.157824 8.850065c.331867.568847 1.135202 1.030375 1.792971 1.030375h10.333543c.658756 0 1.460603-.461027 1.792956-1.030375l5.157821-8.850065c.33187-.568846.33187-1.490917 0-2.060247z" fill="#ffd559"/><path d="M40.515655 13.128918c-.33186-.568847-1.1352-1.029874-1.79297-1.029874h-10.33354c-.65876 0-1.4606.461027-1.79296 1.029874l-5.157819 8.850083c-.331867.568829-.331867 1.491401 0 2.060247l5.157819 8.850065c.33187.568847 1.13521 1.030375 1.79296 1.030375h10.33354c.65876 0 1.46061-.461027 1.79297-1.030375l5.15783-8.850065c.33187-.568846.33187-1.490918 0-2.060247z" fill="#ffc107"/><path d="M19.501729 25.236275c-.331867-.568846-1.135201-1.029874-1.79297-1.029874H7.375231c-.658756 0-1.460603.461028-1.792971 1.029874L.424436 34.086358c-.331867.568829-.331867 1.491401 0 2.060248l5.157824 8.850065c.331867.568846 1.135202 1.030374 1.792971 1.030374h10.333528c.65877 0 1.460617-.461027 1.79297-1.030374l5.157826-8.850065c.33187-.568847.33187-1.490918 0-2.060248z" fill="#ffebad"/></g></svg>