<?xml version="1.0" standalone="no"?>
<!DOCTYPE svg PUBLIC "-//W3C//DTD SVG 20010904//EN"
 "http://www.w3.org/TR/2001/REC-SVG-20010904/DTD/svg10.dtd">
<svg version="1.0" xmlns="http://www.w3.org/2000/svg"
 width="700.000000pt" height="700.000000pt" viewBox="0 0 700.000000 700.000000"
 preserveAspectRatio="xMidYMid meet">
<metadata>
Created by potrace 1.11, written by Peter Selinger 2001-2013
</metadata>
<g transform="translate(0.000000,700.000000) scale(0.100000,-0.100000)"
fill="#000000" stroke="none">
<path d="M1040 6994 c-79 -27 -145 -67 -186 -113 -12 -13 -125 -200 -250 -415
-126 -215 -234 -400 -241 -411 -7 -11 -15 -27 -19 -35 -4 -8 -15 -26 -24 -40
-10 -14 -28 -45 -42 -70 -14 -25 -77 -134 -141 -244 -123 -211 -138 -250 -132
-352 5 -78 13 -96 120 -279 48 -82 100 -171 114 -196 186 -329 603 -1027 629
-1054 19 -19 64 -49 100 -67 l67 -33 850 0 850 0 66 32 c37 19 83 51 105 75
22 24 173 273 337 553 164 281 302 517 307 525 105 176 195 339 205 372 18 61
12 175 -12 229 -11 24 -82 150 -158 279 -76 129 -146 249 -155 265 -9 17 -72
123 -139 238 -67 114 -131 225 -144 246 -127 222 -218 369 -244 396 -17 17
-60 47 -95 66 l-63 34 -845 2 c-465 1 -852 -1 -860 -3z"/>
<path d="M4270 5154 c-95 -32 -164 -78 -206 -139 -50 -71 -799 -1364 -815
-1405 -11 -31 -16 -68 -14 -120 2 -83 19 -131 79 -224 20 -31 36 -58 36 -60 0
-2 84 -147 187 -322 102 -176 248 -425 323 -554 244 -418 229 -398 340 -453
l65 -32 850 0 850 0 65 32 c89 44 124 81 205 222 39 67 198 340 355 608 354
604 357 609 381 661 25 53 32 159 15 222 -6 25 -104 203 -216 395 -112 193
-208 359 -214 370 -6 11 -13 22 -16 25 -3 3 -11 16 -18 29 -8 13 -22 39 -33
57 -10 19 -73 127 -140 241 -67 115 -134 229 -148 255 -38 69 -90 119 -163
159 l-63 34 -845 2 c-465 1 -852 -1 -860 -3z"/>
<path d="M1070 3313 c-77 -23 -171 -82 -207 -132 -13 -16 -23 -32 -23 -34 0
-4 -333 -577 -369 -637 -5 -8 -83 -141 -172 -295 -90 -154 -166 -282 -169
-285 -3 -3 -11 -16 -17 -30 -7 -14 -27 -50 -44 -80 -26 -46 -32 -69 -36 -136
-7 -105 0 -126 108 -310 48 -83 97 -167 108 -188 44 -76 487 -835 500 -856 6
-8 32 -53 58 -100 57 -101 113 -159 191 -197 l57 -28 855 0 855 0 57 27 c61
28 144 104 169 153 9 17 165 286 349 600 183 314 344 590 358 615 14 25 35 61
47 80 53 85 64 218 26 304 -17 40 -131 237 -356 621 -29 50 -61 104 -72 122
-108 187 -278 480 -293 503 -5 8 -26 44 -46 79 -48 84 -111 146 -182 179 l-57
27 -840 1 c-462 1 -847 0 -855 -3z"/>
</g>
</svg>
